HIERARCHY
ROOT Hips
{
	OFFSET 0.000000 71.427986 0.000000
	CHANNELS 6 Xposition Yposition Zposition Xrotation Yrotation Zrotation
	JOINT Pelvis
	{
		OFFSET 0.000000 0.000000 0.000000
		CHANNELS 3 Xrotation Yrotation Zrotation
		JOINT LeftUpLeg
		{
			OFFSET 6.797100 -2.508499 -1.318700
			CHANNELS 3 Xrotation Yrotation Zrotation
			JOINT LeftLeg
			{
				OFFSET 0.069008 -29.241863 0.690200
				CHANNELS 3 Xrotation Yrotation Zrotation
				JOINT LeftFoot
				{
					OFFSET -0.069008 -29.568123 -0.266800
					CHANNELS 3 Xrotation Yrotation Zrotation
					JOINT LeftToeBase
					{
						OFFSET 3.145500 -8.631000 16.059900
						CHANNELS 3 Xrotation Yrotation Zrotation
						End Site
						{
							OFFSET 0.000000 18.501587 0.000000
						}
					}
				}
			}
			JOINT Left_ShortSleeve
			{
				OFFSET 0.265923 -10.480953 1.153800
				CHANNELS 3 Xrotation Yrotation Zrotation
				End Site
				{
					OFFSET 1.725763 19.823879 0.000000
				}
			}
		}
		JOINT RightUpLeg
		{
			OFFSET -6.797100 -2.508499 -1.318700
			CHANNELS 3 Xrotation Yrotation Zrotation
			JOINT RightLeg
			{
				OFFSET -0.082453 -29.241932 0.688000
				CHANNELS 3 Xrotation Yrotation Zrotation
				JOINT RightFoot
				{
					OFFSET 0.082453 -29.568058 -0.264600
					CHANNELS 3 Xrotation Yrotation Zrotation
					JOINT RightToeBase
					{
						OFFSET -3.115300 -8.682800 16.113400
						CHANNELS 3 Xrotation Yrotation Zrotation
						End Site
						{
							OFFSET 0.000000 18.567114 0.000000
						}
					}
				}
			}
			JOINT Right_ShortSleeve
			{
				OFFSET -0.265923 -10.480953 1.153800
				CHANNELS 3 Xrotation Yrotation Zrotation
				End Site
				{
					OFFSET -1.725766 19.823910 0.000000
				}
			}
		}
	}
	JOINT Spine
	{
		OFFSET 0.000000 13.368103 0.470500
		CHANNELS 3 Xrotation Yrotation Zrotation
		JOINT Spine1
		{
			OFFSET 0.147000 13.837402 0.538800
			CHANNELS 3 Xrotation Yrotation Zrotation
			JOINT Spine2
			{
				OFFSET 0.168000 16.242897 -1.435500
				CHANNELS 3 Xrotation Yrotation Zrotation
				JOINT Neck
				{
					OFFSET 0.217200 18.631500 -1.679100
					CHANNELS 3 Xrotation Yrotation Zrotation
					JOINT Head
					{
						OFFSET 0.000000 6.599396 1.385900
						CHANNELS 3 Xrotation Yrotation Zrotation
						JOINT Hat
						{
							OFFSET -0.532200 27.220596 -10.096100
							CHANNELS 3 Xrotation Yrotation Zrotation
							End Site
							{
								OFFSET 0.000000 22.029861 0.000000
							}
						}
						JOINT HairD
						{
							OFFSET -10.777400 17.437393 -1.325900
							CHANNELS 3 Xrotation Yrotation Zrotation
							JOINT HairD1
							{
								OFFSET -3.290299 -11.051193 1.062200
								CHANNELS 3 Xrotation Yrotation Zrotation
								End Site
								{
									OFFSET 0.000000 11.579437 0.000000
								}
							}
						}
						JOINT HairB
						{
							OFFSET -10.777400 17.437393 1.467900
							CHANNELS 3 Xrotation Yrotation Zrotation
							JOINT HairB1
							{
								OFFSET -1.561200 -12.956299 3.590200
								CHANNELS 3 Xrotation Yrotation Zrotation
								End Site
								{
									OFFSET 0.000000 13.534866 0.000000
								}
							}
						}
						JOINT HairA
						{
							OFFSET 9.713100 17.437393 1.467900
							CHANNELS 3 Xrotation Yrotation Zrotation
							JOINT HairA1
							{
								OFFSET 1.561200 -12.956299 3.590200
								CHANNELS 3 Xrotation Yrotation Zrotation
								End Site
								{
									OFFSET 0.000000 13.534866 0.000000
								}
							}
						}
						JOINT HairC
						{
							OFFSET 9.713100 17.437393 -1.325900
							CHANNELS 3 Xrotation Yrotation Zrotation
							JOINT HairC1
							{
								OFFSET 3.290300 -11.051193 1.062200
								CHANNELS 3 Xrotation Yrotation Zrotation
								End Site
								{
									OFFSET 0.000000 11.579437 0.000000
								}
							}
						}
					}
				}
				JOINT LeftShoulder
				{
					OFFSET 5.101800 15.108002 -2.763700
					CHANNELS 3 Xrotation Yrotation Zrotation
					JOINT LeftArm
					{
						OFFSET 9.825497 2.506317 -1.597400
						CHANNELS 3 Xrotation Yrotation Zrotation
						JOINT LeftForeArm
						{
							OFFSET 21.966244 0.000000 0.000000
							CHANNELS 3 Xrotation Yrotation Zrotation
							JOINT LeftHand
							{
								OFFSET 33.879036 0.000000 0.000000
								CHANNELS 3 Xrotation Yrotation Zrotation
								JOINT LeftHandThumb1
								{
									OFFSET 6.715286 -2.359680 3.363841
									CHANNELS 3 Xrotation Yrotation Zrotation
									JOINT LeftHandThumb2
									{
										OFFSET 2.507072 -1.447464 1.447461
										CHANNELS 3 Xrotation Yrotation Zrotation
										JOINT LeftHandThumb3
										{
											OFFSET 2.898338 -1.673355 1.673357
											CHANNELS 3 Xrotation Yrotation Zrotation
											End Site
											{
												OFFSET -0.295959 3.727692 -0.131651
											}
										}
									}
								}
								JOINT LeftHandIndex1
								{
									OFFSET 14.190811 -0.254547 3.840278
									CHANNELS 3 Xrotation Yrotation Zrotation
									JOINT LeftHandIndex2
									{
										OFFSET 3.551727 0.000000 -0.000000
										CHANNELS 3 Xrotation Yrotation Zrotation
										JOINT LeftHandIndex3
										{
											OFFSET 2.894196 0.000000 0.000000
											CHANNELS 3 Xrotation Yrotation Zrotation
											End Site
											{
												OFFSET -1.000603 2.690872 0.366626
											}
										}
									}
								}
								JOINT LeftHandMiddle1
								{
									OFFSET 13.776489 0.000000 0.000000
									CHANNELS 3 Xrotation Yrotation Zrotation
									JOINT LeftHandMiddle2
									{
										OFFSET 3.438232 0.000000 0.000000
										CHANNELS 3 Xrotation Yrotation Zrotation
										JOINT LeftHandMiddle3
										{
											OFFSET 3.691551 0.000000 0.000000
											CHANNELS 3 Xrotation Yrotation Zrotation
											End Site
											{
												OFFSET -1.082298 3.499527 0.457670
											}
										}
									}
								}
								JOINT LeftHandRing1
								{
									OFFSET 13.966164 -0.268127 -3.067488
									CHANNELS 3 Xrotation Yrotation Zrotation
									JOINT LeftHandRing2
									{
										OFFSET 3.162567 0.000000 0.000000
										CHANNELS 3 Xrotation Yrotation Zrotation
										JOINT LeftHandRing3
										{
											OFFSET 3.324348 0.000000 0.000000
											CHANNELS 3 Xrotation Yrotation Zrotation
											End Site
											{
												OFFSET -0.861900 3.184998 0.405154
											}
										}
									}
								}
								JOINT LeftHandPinky1
								{
									OFFSET 13.131393 -0.168503 -5.746925
									CHANNELS 3 Xrotation Yrotation Zrotation
									JOINT LeftHandPinky2
									{
										OFFSET 2.849182 0.000000 0.000000
										CHANNELS 3 Xrotation Yrotation Zrotation
										JOINT LeftHandPinky3
										{
											OFFSET 2.805038 0.000000 0.000000
											CHANNELS 3 Xrotation Yrotation Zrotation
											End Site
											{
												OFFSET -0.882500 2.642609 0.325652
											}
										}
									}
								}
							}
							JOINT Left_Sleeve
							{
								OFFSET 6.592125 -0.646545 0.805568
								CHANNELS 3 Xrotation Yrotation Zrotation
								End Site
								{
									OFFSET -0.000179 20.275787 -0.000000
								}
							}
						}
					}
				}
				JOINT RightShoulder
				{
					OFFSET -5.731700 15.108002 -2.763700
					CHANNELS 3 Xrotation Yrotation Zrotation
					JOINT RightArm
					{
						OFFSET -9.825497 2.506317 -1.597400
						CHANNELS 3 Xrotation Yrotation Zrotation
						JOINT RightForeArm
						{
							OFFSET -21.966242 0.000000 0.000000
							CHANNELS 3 Xrotation Yrotation Zrotation
							JOINT RightHand
							{
								OFFSET -33.879032 0.000000 0.000000
								CHANNELS 3 Xrotation Yrotation Zrotation
								JOINT RightHandThumb1
								{
									OFFSET -6.715286 -2.359680 3.363841
									CHANNELS 3 Xrotation Yrotation Zrotation
									JOINT RightHandThumb2
									{
										OFFSET -2.507072 -1.447464 1.447461
										CHANNELS 3 Xrotation Yrotation Zrotation
										JOINT RightHandThumb3
										{
											OFFSET -2.898338 -1.673355 1.673357
											CHANNELS 3 Xrotation Yrotation Zrotation
											End Site
											{
												OFFSET 0.295959 3.727692 -0.131651
											}
										}
									}
								}
								JOINT RightHandIndex1
								{
									OFFSET -14.190811 -0.254547 3.840278
									CHANNELS 3 Xrotation Yrotation Zrotation
									JOINT RightHandIndex2
									{
										OFFSET -3.551727 0.000000 -0.000000
										CHANNELS 3 Xrotation Yrotation Zrotation
										JOINT RightHandIndex3
										{
											OFFSET -2.894196 0.000000 0.000000
											CHANNELS 3 Xrotation Yrotation Zrotation
											End Site
											{
												OFFSET 1.000603 2.690872 0.366626
											}
										}
									}
								}
								JOINT RightHandMiddle1
								{
									OFFSET -13.776489 0.000000 0.000000
									CHANNELS 3 Xrotation Yrotation Zrotation
									JOINT RightHandMiddle2
									{
										OFFSET -3.438232 0.000000 0.000000
										CHANNELS 3 Xrotation Yrotation Zrotation
										JOINT RightHandMiddle3
										{
											OFFSET -3.691551 0.000000 0.000000
											CHANNELS 3 Xrotation Yrotation Zrotation
											End Site
											{
												OFFSET 1.082298 3.499527 0.457670
											}
										}
									}
								}
								JOINT RightHandRing1
								{
									OFFSET -13.966164 -0.268127 -3.067488
									CHANNELS 3 Xrotation Yrotation Zrotation
									JOINT RightHandRing2
									{
										OFFSET -3.162567 0.000000 0.000000
										CHANNELS 3 Xrotation Yrotation Zrotation
										JOINT RightHandRing3
										{
											OFFSET -3.324348 0.000000 0.000000
											CHANNELS 3 Xrotation Yrotation Zrotation
											End Site
											{
												OFFSET 0.861900 3.184998 0.405154
											}
										}
									}
								}
								JOINT RightHandPinky1
								{
									OFFSET -13.131393 -0.168503 -5.746925
									CHANNELS 3 Xrotation Yrotation Zrotation
									JOINT RightHandPinky2
									{
										OFFSET -2.849182 0.000000 0.000000
										CHANNELS 3 Xrotation Yrotation Zrotation
										JOINT RightHandPinky3
										{
											OFFSET -2.805038 0.000000 0.000000
											CHANNELS 3 Xrotation Yrotation Zrotation
											End Site
											{
												OFFSET 0.882500 2.642609 0.325652
											}
										}
									}
								}
							}
							JOINT Right_Sleeve
							{
								OFFSET -6.592125 -0.646545 0.805568
								CHANNELS 3 Xrotation Yrotation Zrotation
								End Site
								{
									OFFSET 0.000179 20.275787 -0.000000
								}
							}
						}
					}
				}
				JOINT Bind_Right_JacketString
				{
					OFFSET -3.534800 11.969597 7.200700
					CHANNELS 3 Xrotation Yrotation Zrotation
					JOINT Bind_Right_JacketString1
					{
						OFFSET -0.319900 -6.102600 2.794100
						CHANNELS 3 Xrotation Yrotation Zrotation
						End Site
						{
							OFFSET 0.000000 6.719452 0.000000
						}
					}
				}
				JOINT Bind_Left_JacketString
				{
					OFFSET 2.904800 11.969597 7.200700
					CHANNELS 3 Xrotation Yrotation Zrotation
					JOINT Bind_Left_JacketString1
					{
						OFFSET 0.364800 -5.904503 3.186800
						CHANNELS 3 Xrotation Yrotation Zrotation
						End Site
						{
							OFFSET 0.000000 6.719513 0.000000
						}
					}
				}
				JOINT HairE
				{
					OFFSET 5.915200 17.612701 -11.592200
					CHANNELS 3 Xrotation Yrotation Zrotation
					JOINT HairE1
					{
						OFFSET 0.289200 -7.171898 -1.284500
						CHANNELS 3 Xrotation Yrotation Zrotation
						End Site
						{
							OFFSET 0.000000 7.291756 0.000000
						}
					}
				}
				JOINT HairF
				{
					OFFSET -0.864800 17.612701 -11.592200
					CHANNELS 3 Xrotation Yrotation Zrotation
					JOINT HairF1
					{
						OFFSET 0.000000 -14.087097 -2.127501
						CHANNELS 3 Xrotation Yrotation Zrotation
						End Site
						{
							OFFSET 0.000000 14.246841 0.000000
						}
					}
				}
				JOINT HairG
				{
					OFFSET -8.087700 17.612701 -11.592200
					CHANNELS 3 Xrotation Yrotation Zrotation
					JOINT HairG1
					{
						OFFSET -0.293600 -6.081398 -0.910100
						CHANNELS 3 Xrotation Yrotation Zrotation
						End Site
						{
							OFFSET 0.000000 6.156120 0.000000
						}
					}
				}
			}
		}
	}
	JOINT Pouch
	{
		OFFSET 0.000000 4.394501 10.847300
		CHANNELS 3 Xrotation Yrotation Zrotation
		End Site
		{
			OFFSET 0.000000 21.880577 0.000000
		}
	}
	JOINT Bag
	{
		OFFSET -13.229000 4.813004 -0.593300
		CHANNELS 3 Xrotation Yrotation Zrotation
		End Site
		{
			OFFSET 0.000000 21.880577 0.000000
		}
	}
	JOINT OccupyGuyFacialAnim_Joint
	{
		OFFSET 1.000000 -70.206398 -1.655000
		CHANNELS 3 Xrotation Yrotation Zrotation
		End Site
		{
			OFFSET 0.000000 21.880577 0.000000
		}
	}
}
MOTION
Frames: 4
Frame Time: 0.033333
-13.063110 69.530037 2.142168 -3.244299 30.146925 3.812708 -0.000000 -0.000002 0.000000 -3.811961 -14.679320 10.014795 16.063060 -0.572373 0.016826 -9.293407 1.105631 -17.637521 -0.000000 -0.000001 0.000000 -0.000000 -0.000002 -0.000001 -5.990760 -35.402902 -3.995808 26.127922 -1.608560 0.132508 -20.563867 -6.001910 -2.471559 -0.000000 0.000000 0.000000 0.000000 0.000001 -0.000000 12.789854 3.624372 3.895810 -4.845698 1.282951 6.112582 -4.711223 0.737133 3.160104 6.215494 -3.362928 1.729788 -1.698024 -20.651226 3.154936 0.000000 -0.000001 -0.000001 0.000000 -0.000001 -0.000001 0.000000 -0.000001 -0.000001 0.000000 -0.000001 -0.000001 0.000001 -0.000001 -0.000001 0.000000 -0.000001 -0.000001 0.000001 -0.000001 -0.000001 0.000000 -0.000001 -0.000001 0.000000 -0.000001 -0.000001 4.612357 -6.039059 -11.223760 21.653887 -39.878258 -69.617530 -0.000002 -4.172256 -0.000004 -29.028359 -3.339796 -3.172494 -18.433934 -2.599630 -13.701065 6.887431 24.104709 2.797970 0.000001 0.000001 -0.000000 2.281649 7.262790 -11.936226 0.248904 1.691112 -16.744564 0.000001 0.000001 -0.000002 1.436630 7.229473 -19.386927 0.725652 2.826026 -28.796730 -0.000001 -0.000000 0.000001 -1.762799 -0.777349 -23.166094 0.481903 2.328713 -23.380322 0.000000 0.000002 -0.000004 -18.776388 2.956252 -33.008303 1.077437 3.387336 -35.281014 -0.000000 0.000000 -0.000001 -0.000000 0.000000 -0.000000 19.532550 4.151381 21.054155 -5.330743 16.678589 20.107512 0.000003 8.169483 -0.000004 4.611412 2.953563 8.223610 -9.381052 13.028454 15.715813 12.989823 -39.082571 -0.350799 -0.000002 -0.000001 0.000000 3.934494 -2.339294 2.758443 0.228516 -1.442370 18.004606 0.000001 0.000000 0.000000 -0.112790 -3.451414 33.690502 0.229467 -1.445281 18.042127 0.000001 -0.000001 0.000001 -6.362859 4.764324 37.294404 0.693901 -2.447717 31.650796 -0.000000 0.000001 -0.000003 -25.164640 2.234856 40.601499 0.684285 -2.432038 31.424474 -0.000004 0.000002 -0.000003 -0.000000 0.000001 -0.000002 -0.000001 0.000000 0.000001 0.000000 0.000000 0.000001 -0.000001 0.000000 0.000002 -0.000001 0.000000 0.000002 -0.000001 0.000000 0.000001 0.000000 0.000000 0.000001 -0.000001 0.000000 0.000002 -0.000001 0.000000 0.000002 -0.000001 0.000000 0.000001 0.000000 0.000000 0.000001 -0.000000 -0.000002 0.000000 -0.000000 -0.000002 0.000000 -0.000000 -0.000002 0.000000 
-12.518570 69.454163 2.313870 -3.175181 26.847086 2.875537 0.000000 0.000001 0.000000 -0.860612 -19.669929 9.509258 15.567278 -0.031884 0.006663 -12.336765 -0.125878 -13.278661 0.000000 -0.000001 0.000000 -0.000000 -0.000000 -0.000000 -5.508633 -32.895909 -3.318446 26.395375 -1.572250 0.129402 -20.424190 -5.278045 -2.018693 0.000000 0.000000 -0.000000 0.000001 -0.000001 -0.000000 12.640086 4.005968 5.185748 -4.749530 1.351970 6.503439 -4.602354 0.799619 3.550604 6.581578 -3.220749 1.595403 -3.236892 -18.782872 1.896152 -0.000000 -0.000000 -0.000003 -0.000000 -0.000000 -0.000003 -0.000000 -0.000000 -0.000003 -0.000000 -0.000000 -0.000003 -0.000000 -0.000000 0.000001 -0.000000 -0.000000 -0.000003 -0.000000 -0.000000 0.000001 -0.000000 -0.000000 -0.000003 -0.000000 -0.000000 -0.000003 4.605050 -5.882603 -10.792307 22.390229 -40.270584 -72.887080 -0.000004 -5.599616 0.000018 -29.791731 -4.391844 -3.946485 -18.433933 -2.599631 -13.701065 6.535137 23.182429 2.917309 0.000002 -0.000000 0.000001 2.535786 7.209388 -9.644549 0.219078 1.588648 -15.702335 0.000002 0.000000 -0.000000 1.093709 6.598075 -16.869061 0.610098 2.605026 -26.358098 0.000001 0.000002 -0.000003 -1.422994 -0.703634 -20.204560 0.433937 2.214575 -22.170352 -0.000001 0.000000 -0.000003 -18.655352 2.498703 -31.561362 0.973581 3.235816 -33.483264 -0.000005 0.000001 -0.000000 0.000004 -0.000002 -0.000000 20.917888 3.847166 20.547463 -7.961257 14.154061 26.575305 -0.000002 6.953612 -0.000007 5.014096 3.078949 7.846872 -9.688511 12.558818 15.662515 12.775914 -39.130150 -0.427320 0.000001 -0.000001 0.000000 3.590297 -1.520115 0.208661 0.236224 -1.465877 18.308341 0.000003 -0.000001 0.000004 -0.166332 -3.309174 32.602610 0.176918 -1.272728 15.826662 0.000000 0.000000 -0.000002 -6.037499 5.039314 35.301969 0.579568 -2.251890 28.862955 -0.000000 -0.000004 -0.000004 -24.569720 3.517959 37.603815 0.592783 -2.275663 29.197122 -0.000000 0.000001 0.000001 0.000004 -0.000000 0.000000 -0.000000 -0.000000 -0.000003 -0.000000 -0.000000 0.000001 -0.000000 -0.000000 -0.000002 -0.000000 -0.000000 -0.000002 -0.000000 -0.000000 -0.000003 -0.000000 -0.000000 0.000001 -0.000000 -0.000000 -0.000002 -0.000000 -0.000000 -0.000002 -0.000000 -0.000000 -0.000003 -0.000000 -0.000000 0.000001 0.000000 0.000001 0.000000 0.000000 0.000001 0.000000 0.000000 0.000001 0.000000 
-11.981316 69.380661 2.510492 -3.238199 23.767265 1.826097 -0.000000 0.000001 0.000000 -0.409182 -20.872787 8.961370 18.493027 0.559143 -0.037930 -15.414014 -0.223818 -9.630774 -0.000000 -0.000000 0.000000 -0.000000 -0.000000 0.000001 -4.765851 -30.553775 -2.415306 26.428328 -1.531669 0.121555 -20.209621 -4.629107 -1.561960 -0.000000 -0.000000 -0.000000 -0.000000 0.000000 -0.000000 12.635502 3.706830 6.352123 -4.621148 1.242186 6.857661 -4.468268 0.684266 3.909139 6.962566 -2.969094 1.633903 -4.339410 -16.471642 1.954930 0.000000 0.000000 0.000000 0.000000 0.000000 0.000000 0.000000 0.000000 -0.000000 0.000000 0.000000 0.000000 0.000000 0.000000 0.000002 0.000000 0.000000 0.000000 0.000000 0.000000 0.000002 0.000000 0.000000 0.000000 0.000000 0.000000 0.000000 4.586592 -6.139234 -10.336870 22.505198 -41.363250 -76.057879 -0.000001 -6.766160 -0.000007 -30.567289 -5.423063 -4.817474 -18.433934 -2.599631 -13.701067 6.046112 21.967715 3.090453 0.000000 0.000001 -0.000002 3.060394 8.064985 -7.766001 0.206943 1.544855 -15.258595 0.000001 0.000002 -0.000002 0.841989 6.038409 -14.836412 0.511544 2.396050 -24.099438 0.000002 0.000000 0.000003 -1.097506 -0.603664 -17.087643 0.433226 2.212830 -22.151989 -0.000001 0.000000 0.000000 -18.691255 1.432913 -29.458910 0.872050 3.077062 -31.639465 -0.000003 -0.000001 0.000003 -0.000000 -0.000000 -0.000000 21.963151 3.304065 20.534428 -9.442211 10.862137 31.257449 0.000002 7.959990 0.000014 2.189296 3.028684 7.532971 -9.981732 12.107507 15.569701 12.576782 -39.076325 -0.515121 0.000003 -0.000002 0.000000 3.340713 -0.615626 -0.412525 0.244590 -1.490907 18.632584 -0.000002 -0.000001 0.000000 -0.227192 -3.147153 31.512198 0.131176 -1.098657 13.616086 0.000004 0.000000 -0.000003 -5.717300 5.318218 33.306291 0.475971 -2.052878 26.104785 0.000000 -0.000001 0.000002 -23.984860 4.628855 34.865237 0.502174 -2.105483 26.827221 0.000002 0.000001 0.000004 -0.000001 0.000001 0.000000 0.000000 0.000002 -0.000001 0.000000 0.000001 -0.000001 0.000000 0.000002 0.000001 0.000000 0.000002 0.000001 0.000000 0.000002 -0.000001 0.000000 0.000001 -0.000000 0.000000 0.000002 0.000001 0.000000 0.000002 0.000001 0.000000 0.000002 -0.000001 0.000000 0.000001 -0.000000 -0.000000 0.000001 0.000000 -0.000000 0.000001 0.000000 -0.000000 0.000001 0.000000 
-11.463142 69.373016 2.636076 -3.040069 20.775304 0.910284 0.000000 0.000001 0.000000 -0.357737 -19.272654 8.974575 20.173292 0.837408 -0.071284 -16.746980 0.899969 -8.871501 0.000000 0.000000 0.000000 0.000000 -0.000000 -0.000000 -4.454104 -28.085239 -1.759719 26.157056 -1.497983 0.114708 -19.756102 -4.153536 -1.137377 -0.000000 0.000000 0.000000 -0.000000 0.000001 -0.000000 12.521271 2.460168 7.102292 -4.492063 0.908323 7.077386 -4.345409 0.348588 4.140508 7.281161 -2.624668 1.731312 -4.792451 -13.954227 3.588389 -0.000001 0.000000 0.000001 -0.000001 0.000000 0.000001 -0.000001 0.000000 0.000001 -0.000001 0.000000 0.000001 -0.000000 0.000000 0.000001 -0.000001 0.000000 0.000001 -0.000000 0.000000 0.000001 -0.000001 0.000000 0.000001 -0.000001 0.000000 0.000001 4.579302 -6.352654 -9.907971 23.385594 -44.380735 -77.857333 -0.000003 -8.626132 0.000003 -31.189386 -6.446963 -6.290670 -18.433931 -2.599631 -13.701067 5.661438 20.976146 3.215577 0.000000 -0.000001 0.000000 3.613316 9.270148 -6.476221 0.214771 1.573261 -15.546346 0.000002 0.000001 0.000002 0.652192 5.447965 -13.812824 0.444901 2.241264 -22.452328 0.000001 0.000000 -0.000005 -0.975880 -0.871587 -14.861728 0.465946 2.291485 -22.984454 -0.000002 0.000002 -0.000001 -18.886329 -0.052966 -27.354728 0.783248 2.928235 -29.944150 -0.000001 -0.000001 0.000001 0.000002 0.000000 -0.000000 22.288675 2.957058 19.931274 -10.717884 7.444381 35.264154 0.000001 8.311229 -0.000005 -0.985119 2.447559 6.454278 -10.265963 11.669074 15.444210 12.389110 -38.940012 -0.611737 -0.000001 -0.000001 0.000001 3.103736 0.304479 0.458703 0.253714 -1.517665 18.979873 0.000004 -0.000001 0.000000 -0.293980 -2.968018 30.459570 0.093673 -0.930384 11.498998 -0.000000 0.000000 -0.000001 -5.414488 5.600989 31.366278 0.385721 -1.857490 23.459697 0.000000 0.000002 0.000000 -23.427247 5.590756 32.381452 0.417201 -1.928382 24.412882 -0.000000 0.000002 0.000002 0.000003 -0.000000 0.000002 0.000000 0.000000 -0.000001 0.000000 0.000002 0.000000 0.000000 0.000000 -0.000001 0.000000 0.000000 -0.000001 0.000000 0.000000 -0.000001 0.000000 0.000002 0.000001 0.000000 0.000000 -0.000001 0.000000 0.000000 -0.000001 0.000000 0.000000 -0.000001 0.000000 0.000002 0.000001 0.000000 0.000001 0.000000 0.000000 0.000001 0.000000 0.000000 0.000001 0.000000 
